<?xml version="1.0" encoding="utf-8"?>
<!-- Generator: Adobe Illustrator 16.0.0, SVG Export Plug-In . SVG Version: 6.00 Build 0)  -->
<!DOCTYPE svg PUBLIC "-//W3C//DTD SVG 1.1//EN" "http://www.w3.org/Graphics/SVG/1.1/DTD/svg11.dtd">
<svg version="1.1" xmlns="http://www.w3.org/2000/svg" xmlns:xlink="http://www.w3.org/1999/xlink" x="0px" y="0px" width="450px"
	 height="400px" viewBox="0 0 450 400" enable-background="new 0 0 450 400" xml:space="preserve">
<g id="Colombia">
	<path fill="#CEF275" d="M333.544,272.496c-2.546,2.56-4.588,1.034-6.112-8.165c-1.538-9.176-6.126-20.923-15.313-10.197
		c-9.187,10.713-7.649-0.516-11.229,0.504c-3.579,1.034,7.662,5.104-10.195,5.104c-17.858,0-28.067,1.525-28.067,1.525l1.008,13.788
		c0,0,20.43-2.56,14.81,11.228c-2.042,4.589-2.547-3.062-7.65-1.536c-5.104,1.536-12.263,2.054-12.263,2.054l-1.524,16.321
		c0,0,14.795,8.671,11.745,14.795c-2.054,3.567,8.154,4.083,5.104,15.301c-3.062,11.229-12.767,65.838-12.767,65.838
		s-1.523-6.643-9.691-8.684c-8.179-2.042-14.118,6.002-1.021-13.271c8.671-12.755,7.146-13.001,7.146-13.001
		s-10.726-3.823-16.85-8.411c-6.112-4.612-12.754,5.596-21.425-4.097c-4.084-2.545-4.084,6.643-12.754,6.643
		c-8.683,0-20.921,7.649-21.942-13.271c0.505-8.167-9.705,4.588-8.154-12.239c1.524-8.165-15.816-2.558-17.366-8.683
		c-1.525-6.125-3.051-15.312-22.963-21.438c-19.9-6.112-18.35-14.795-29.075-8.67C96.28,300.047,85.051,292.912,82,288.83
		c-3.062-4.083-2.054-7.65-14.304-10.196c-12.237-2.558-27.549-22.471-13.27-19.408c14.304,3.075-1.513-1.525,0-11.722
		c1.549-10.208,11.241-10.208,19.408-9.691c8.167,0.493,17.858-21.953,17.342-25.509c-0.517-3.578-11.733,0.493-3.062-23.995
		c0.517-8.683-6.113-12.238-4.587-17.858c1.525-5.621,7.65,0,1.021-15.817c5.609-13.775-1.537-9.187-6.125-15.829
		c-4.587-6.617-6.137-17.858,2.03-16.309c8.179,1.513,7.146-7.662,10.208-10.725c-4.022-4.538-10.073-29.554,4.625-4.907
		l0.824,3.235c-0.406,2.066-6.42,5.387-4.969,8.068c1.464,2.706,2.079,4.354,5.387,5.19c3.321,0.825,2.903,1.033,4.145,4.969
		c1.242,3.923,3.308,2.484,5.178,4.55c1.858,2.067,1.23,6.002-4.354,6.433c-5.584,0.394,0.418,1.648-1.87,3.1
		c-2.275,1.439-6.001,2.263-3.099,5.584c2.903,3.308,3.53,8.904,4.969,11.586c1.439,2.706,10.775,0.836,12.423,1.045
		c1.66,0.221,2.484,4.145,4.366,5.189c1.857,1.021-2.706,8.684,0.603,10.344c3.32,1.648,13.049,3.518,11.819-3.936
		c-0.824-2.693,5.99,0.222,5.99,1.661s3.124,8.695,7.465-0.221c4.33-8.893,6.212-1.845,7.651-1.648
		c1.451,0.209,6.223-6.42,4.772-10.553c-1.464-4.144,4.145-6.013,5.387-7.243c1.242-1.255-2.484-3.739-0.221-5.191
		c2.287-1.439,13.468-9.101,13.062-10.982c-0.418-1.845-2.694-3.506-2.497-5.99c0.209-2.484-3.31,7.035-9.312,6.42
		c-6.014-0.627-1.254-7.884-0.43-9.532c0.836-1.66-0.603-4.981-3.702,0c-3.124,4.969-2.915-6.199-0.836-7.859
		c2.053-1.66-1.451-7.675-6.617-10.983c-5.19-3.308-0.836,0-5.608,1.046c-4.773,1.021-6.629,1.439-9.311,5.583
		c-2.693,4.145-1.254,1.648-7.047,7.035c-5.805,5.387-3.715,7.453-11.389,6.629c-7.675-0.824-10.762-1.242-10.762-6.21
		c0-4.969,4.969-20.098,7.035-20.491c2.067-0.431,0.32-2.14-2.484-8.499c-2.288-5.19-2.288-4.563-2.288-4.563l-0.357-0.012
		c3.039-3.776,6.125-8.696,8.512-10.492c4.071-3.062,12.754,1.034,9.175-8.659c-0.775-2.104-1.292-2.952-1.562-3.235
		c0.639-0.11,2.472-2.238,5.141-16.677c2.546-6.63,11.217-9.175,15.313-10.7c4.071-1.55,14.279,6.112,17.342-8.167
		c5.62,0.504,20.404,4.071,28.57-5.621c8.154-9.692,15.817-3.58,16.321-8.683c0.517-5.105-1.009-7.134,5.62-7.651
		c6.63-0.504,4.588-9.175,12.755-4.071c8.167,5.092,14.796,12.238-1.525,17.858c-16.334,5.608-13.271,2.029-16.334,8.167
		c-3.062,6.112-9.691,9.175-12.754,14.279c-3.075,5.104-3.58,20.921-7.663,24.5c-4.07,3.567-11.229,15.312-0.503,11.733
		c10.713-3.579,5.091,7.65,11.229,12.754c6.112,5.104,6.629,14.279,2.545,18.879c-4.082,4.588,1.526,11.733,6.126,12.25
		c4.6,0.505,1.021,6.125,5.091,8.167c4.096,2.029,7.159-1.034,16.334,0.516c9.188,1.513,14.796-4.612,24.488,1.513
		c7.157-0.505,13.271,13.271,18.891,18.375c5.608,5.104,7.134-3.062,17.858,0c10.713,3.062,16.334-2.029,21.438-3.062
		c5.104-1.033,10.209,5.104,4.588,12.238c-5.621,7.146,4.071,4.6-5.104,10.208c-2.042,10.725-3.062,20.417,1.021,26.026
		c4.084,5.62,0.505,10.724,6.126,11.24c5.608,0.493,6.124,12.238-5.621,18.868c-11.733,6.641,3.063,2.545,6.643,7.649
		C322.831,243.926,336.103,269.95,333.544,272.496z"/>
	<path fill="#7C8C7C" d="M161.965,154.216c-1.243,1.225-6.842,3.098-5.385,7.239c1.458,4.142-3.312,10.769-4.771,10.554
		c-1.441-0.199-3.313-7.241-7.653,1.656c-4.341,8.914-7.455,1.657-7.455,0.215c0-1.441-6.826-4.356-5.998-1.656
		c1.226,7.455-8.498,5.583-11.812,3.928c-3.312-1.658,1.244-9.312-0.612-10.339c-1.873-1.044-2.7-4.97-4.356-5.185
		c-1.658-0.215-10.985,1.656-12.425-1.044c-1.441-2.684-2.072-8.283-4.971-11.597c-2.899-3.313,0.829-4.142,3.099-5.583
		c2.287-1.441-3.711-2.7,1.873-3.098c5.583-0.43,6.212-4.357,4.356-6.427c-1.872-2.071-3.942-0.629-5.185-4.556
		c-1.243-3.926-0.828-4.142-4.143-4.969c-3.312-0.829-3.925-2.485-5.383-5.186c-1.457-2.684,4.556-5.997,4.97-8.068l-0.827-3.231
		c0.165,0.266,0.313,0.531,0.479,0.812c3.066,7.67,13.27,8.681,0-8.151c1.028-6.643,2.552-4.092,7.14-4.092
		c1.921,0,4.093-2.119,6.296-4.819l0.364,0.016c0,0,0-0.63,2.286,4.556c2.799,6.362,4.556,8.068,2.485,8.499
		c-2.071,0.397-7.041,15.522-7.041,20.493c0,4.97,3.097,5.384,10.768,6.212s5.583-1.243,11.382-6.626
		c5.799-5.385,4.356-2.899,7.057-7.041c2.683-4.142,4.539-4.556,9.311-5.583c4.771-1.044,0.414-4.357,5.599-1.044
		c5.168,3.313,8.682,9.327,6.626,10.983c-2.087,1.657-2.287,12.823,0.829,7.854c3.098-4.971,4.539-1.658,3.71,0
		c-0.828,1.656-5.583,8.912,0.431,9.542c5.997,0.613,9.509-8.913,9.311-6.428c-0.199,2.485,2.07,4.142,2.485,5.998
		c0.414,1.872-10.769,9.542-13.054,10.984C159.48,150.472,163.207,152.957,161.965,154.216z"/>
	<ellipse fill="#E5F4BF" cx="131.592" cy="158.085" rx="2.071" ry="1.991"/>
	<text transform="matrix(1 0 0 1 48.1943 37.1401)"><tspan x="0" y="0" fill="#458BB2" font-family="'Helvetica'" font-size="12.5533">Antioquia</tspan><tspan x="-16.74" y="15.064" fill="#458BB2" font-family="'Helvetica'" font-size="12.5533">(departamento)</tspan></text>
	<g>
		<text transform="matrix(1 0 0 1 91.8257 385.749)" fill="#458BB2" font-family="'Helvetica'" font-size="24.0604">COLOMBIA</text>
	</g>
	<g>
		<text transform="matrix(1 0 0 1 23.1343 196.811)"><tspan x="0" y="0" fill="#458BB2" font-family="'Helvetica'" font-size="12.5533">Medellín</tspan><tspan x="1.048" y="15.064" fill="#458BB2" font-family="'Helvetica'" font-size="12.5533">(ciudad)</tspan></text>
	</g>
	<line fill="none" stroke="#458BB2" stroke-miterlimit="10" x1="74.42" y1="189.92" x2="129.862" y2="159.125"/>
	<line fill="none" stroke="#458BB2" stroke-miterlimit="10" x1="78.179" y1="55.242" x2="105.741" y2="94.706"/>
</g>
<g id="South_America_Map">
	<g>
		<g>
			<g>
				<path fill="none" stroke="#A55548" stroke-miterlimit="10" d="M369.226,110.408l5.733,3.461
					c3.775,1.369,5.327-0.437,9.113-5.877"/>
				<path fill="none" stroke="#A55548" stroke-miterlimit="10" d="M384.084,107.968c0.589-0.854,1.188-1.827,1.786-2.953
					c0,0,6.09-3.045,6.09-12.523c3.044-1.015,9.132-6.759,15.222-5.744c4.404-4.06,8.118-12.858,7.784-21.657
					c7.104-3.715,19.617-14.543,5.409-18.937c-3.045-3.045-4.729-7.449-15.558-7.104c-1.015-2.375-6.09-6.089-11.844-2.03
					c1.016-2.03,0.346-5.754-4.06-2.374l-2.354,1.003c0.141-0.222,2.456-3.765,5.743-5.733c-2.375-2.71-1.359-8.464-10.493-11.843
					c-6.089,1.35-7.773,0.334-7.773,0.334s-3.39-5.409-6.089-6.089c-2.71-0.67,0.67-5.409-11.164-4.059
					c-11.843,1.359-8.463-1.686-12.179-3.045c-1.694,1.015-1.359,2.029-4.059,2.375"/>
				<path fill="none" stroke="#A55548" stroke-miterlimit="10" d="M325.559,28.12c-0.456,0.751-1.025,1.552-1.706,2.415
					c-5.145,6.495-4.82,5.582-2.282,11.163c-0.306,0.051-0.722,0.285-1.27,0.761c-0.649,1.694-1.715,1.918-1.704,2.994
					c0,1.015,0.942,2.781,4.027,7.256c2.935,4.242,5.633,5.643,5.633,10.473c0,4.476,12.026,7.52,15.781,12.523
					c0.081,0.021,0.457,0.975,0.559,0.975c0.029,0.05,0.05,0.102,0.07,0.152c2.416,5.643,0,52.355-1.614,57.187
					c0,0,4.03,0,0.812,5.643c-0.943,1.653-1.471,2.456-1.715,2.8c0.254-0.295,0.863-0.862,1.441-0.579
					c1.35,0.68,0.67,3.044,0.334,4.739c-0.334,1.685,6.125,11.499,8.154,10.483c2.02-1.015,0.42,0.193,0.42,1.543v0.01
					c0,0.275,1.486-0.041,2.635,0.081"/>
			</g>
			<g>
				<path fill="none" stroke="#A55548" stroke-miterlimit="10" d="M354.705,151.319c-0.019,4.146,4.831,6.578,6.119,7.229
					c-0.863,0.862-4.404,1.035-6.809,0.801"/>
				<path fill="none" stroke="#A55548" stroke-miterlimit="10" d="M369.204,110.388v0.01l0.021,0.01
					c12.188,12.056-5.338,12.198-5.338,12.198c0,1.695,1.683,3.379-0.347,4.739c-2.028,1.351-4.728,0-4.728,0l0.335,2.7l2.364,0.68
					c-1.685,1.015-2.031,4.395-3.715,5.754c-2.709,0.335-1.694,4.395,1.016,5.744c-3.461,4.567-4.395,7.826-4.09,10.18l-0.082-0.558
					"/>
			</g>
		</g>
		<path fill="#A55548" d="M350.757,27.277l-1.523,0.843l-4.231-0.68l0.173,1.695c3.217,1.35,0.172,1.187-0.68,1.694
			c-0.843,0.508,1.521,3.045,1.521,3.045l-0.842,6.931l-1.695-1.014c0,0,1.016-1.188,0.853-2.365
			c-0.173-1.188-5.073,1.35-5.754-0.852c-0.68-2.192-3.045-1.522-3.38-2.365c-0.345-0.843-1.015-2.202-2.709-2.202
			s-3.725-0.163-3.887-1.178c-0.174-1.014-1.522-2.029-2.883-2.375l-0.161-0.334c2.82-4.607,1.846-7.541-0.225-11.691
			c1.035-0.294,2.527-6.14,9.967-9.854C339.318,4.565,340,5.022,340,5.864v0.01l0.041,1.715c-0.742,0.619-2.731,3.786-2.731,3.786
			c2.71,0.334,2.491,4.738,2.491,4.738l4.632,0.335l1.552,1.857l4.422,0.172c-0.68,0.842-1.516,1.015-0.501,4.394
			c1.016,3.389-1.011,2.71,0.005,3.045C350.926,26.262,350.757,27.277,350.757,27.277z"/>
	</g>
</g>
</svg>
