<?xml version="1.0" encoding="utf-8"?>
<!-- Generator: Adobe Illustrator 16.0.0, SVG Export Plug-In . SVG Version: 6.00 Build 0)  -->
<!DOCTYPE svg PUBLIC "-//W3C//DTD SVG 1.1//EN" "http://www.w3.org/Graphics/SVG/1.1/DTD/svg11.dtd">
<svg version="1.1" id="Layer_1" xmlns="http://www.w3.org/2000/svg" xmlns:xlink="http://www.w3.org/1999/xlink" x="0px" y="0px"
	 width="450px" height="250px" viewBox="0 0 450 250" enable-background="new 0 0 450 250" xml:space="preserve">
<line fill="none" stroke="#989898" stroke-linejoin="round" stroke-miterlimit="10" x1="48.29" y1="198.771" x2="48.29" y2="52.438"/>
<line fill="none" stroke="#989898" stroke-linejoin="round" stroke-miterlimit="10" x1="45.597" y1="52.747" x2="47.918" y2="52.747"/>
<line fill="none" stroke="#989898" stroke-linejoin="round" stroke-miterlimit="10" x1="45.597" y1="68.993" x2="47.918" y2="68.993"/>
<line fill="none" stroke="#989898" stroke-linejoin="round" stroke-miterlimit="10" x1="45.597" y1="85.238" x2="47.918" y2="85.238"/>
<line fill="none" stroke="#989898" stroke-linejoin="round" stroke-miterlimit="10" x1="45.597" y1="101.484" x2="47.918" y2="101.484"/>
<line fill="none" stroke="#989898" stroke-linejoin="round" stroke-miterlimit="10" x1="45.597" y1="117.73" x2="47.918" y2="117.73"/>
<line fill="none" stroke="#989898" stroke-linejoin="round" stroke-miterlimit="10" x1="45.597" y1="133.976" x2="47.918" y2="133.976"/>
<line fill="none" stroke="#989898" stroke-linejoin="round" stroke-miterlimit="10" x1="45.597" y1="150.222" x2="47.918" y2="150.222"/>
<line fill="none" stroke="#989898" stroke-linejoin="round" stroke-miterlimit="10" x1="45.597" y1="166.467" x2="47.918" y2="166.467"/>
<line fill="none" stroke="#989898" stroke-linejoin="round" stroke-miterlimit="10" x1="45.597" y1="182.713" x2="47.918" y2="182.713"/>
<line fill="none" stroke="#989898" stroke-linejoin="round" stroke-miterlimit="10" x1="45.597" y1="198.771" x2="47.918" y2="198.771"/>
<line fill="none" stroke="#989898" stroke-linejoin="round" stroke-miterlimit="10" x1="48.29" y1="198.771" x2="417.699" y2="198.771"/>
<line fill="none" stroke="#989898" stroke-linejoin="round" stroke-miterlimit="10" x1="417.699" y1="198.958" x2="417.699" y2="201.227"/>
<line fill="none" stroke="#989898" stroke-linejoin="round" stroke-miterlimit="10" x1="403.774" y1="198.958" x2="403.774" y2="201.227"/>
<line fill="none" stroke="#989898" stroke-linejoin="round" stroke-miterlimit="10" x1="389.076" y1="198.958" x2="389.076" y2="201.227"/>
<line fill="none" stroke="#989898" stroke-linejoin="round" stroke-miterlimit="10" x1="375.151" y1="198.958" x2="375.151" y2="201.227"/>
<line fill="none" stroke="#989898" stroke-linejoin="round" stroke-miterlimit="10" x1="361.227" y1="198.958" x2="361.227" y2="201.227"/>
<line fill="none" stroke="#989898" stroke-linejoin="round" stroke-miterlimit="10" x1="346.527" y1="198.958" x2="346.527" y2="201.227"/>
<line fill="none" stroke="#989898" stroke-linejoin="round" stroke-miterlimit="10" x1="332.603" y1="198.958" x2="332.603" y2="201.227"/>
<line fill="none" stroke="#989898" stroke-linejoin="round" stroke-miterlimit="10" x1="317.904" y1="198.958" x2="317.904" y2="201.227"/>
<line fill="none" stroke="#989898" stroke-linejoin="round" stroke-miterlimit="10" x1="303.979" y1="198.958" x2="303.979" y2="201.227"/>
<line fill="none" stroke="#989898" stroke-linejoin="round" stroke-miterlimit="10" x1="290.055" y1="198.958" x2="290.055" y2="201.227"/>
<line fill="none" stroke="#989898" stroke-linejoin="round" stroke-miterlimit="10" x1="275.356" y1="198.958" x2="275.356" y2="201.227"/>
<line fill="none" stroke="#989898" stroke-linejoin="round" stroke-miterlimit="10" x1="261.432" y1="198.958" x2="261.432" y2="201.227"/>
<line fill="none" stroke="#989898" stroke-linejoin="round" stroke-miterlimit="10" x1="247.507" y1="198.958" x2="247.507" y2="201.227"/>
<line fill="none" stroke="#989898" stroke-linejoin="round" stroke-miterlimit="10" x1="232.809" y1="198.958" x2="232.809" y2="201.227"/>
<line fill="none" stroke="#989898" stroke-linejoin="round" stroke-miterlimit="10" x1="218.884" y1="198.958" x2="218.884" y2="201.227"/>
<line fill="none" stroke="#989898" stroke-linejoin="round" stroke-miterlimit="10" x1="204.959" y1="198.958" x2="204.959" y2="201.227"/>
<line fill="none" stroke="#989898" stroke-linejoin="round" stroke-miterlimit="10" x1="190.261" y1="198.958" x2="190.261" y2="201.227"/>
<line fill="none" stroke="#989898" stroke-linejoin="round" stroke-miterlimit="10" x1="176.336" y1="198.958" x2="176.336" y2="201.227"/>
<line fill="none" stroke="#989898" stroke-linejoin="round" stroke-miterlimit="10" x1="161.637" y1="198.958" x2="161.637" y2="201.227"/>
<line fill="none" stroke="#989898" stroke-linejoin="round" stroke-miterlimit="10" x1="147.712" y1="198.958" x2="147.712" y2="201.227"/>
<line fill="none" stroke="#989898" stroke-linejoin="round" stroke-miterlimit="10" x1="133.787" y1="198.958" x2="133.787" y2="201.227"/>
<line fill="none" stroke="#989898" stroke-linejoin="round" stroke-miterlimit="10" x1="119.089" y1="198.958" x2="119.089" y2="201.227"/>
<line fill="none" stroke="#989898" stroke-linejoin="round" stroke-miterlimit="10" x1="105.164" y1="198.958" x2="105.164" y2="201.227"/>
<line fill="none" stroke="#989898" stroke-linejoin="round" stroke-miterlimit="10" x1="91.239" y1="198.958" x2="91.239" y2="201.227"/>
<line fill="none" stroke="#989898" stroke-linejoin="round" stroke-miterlimit="10" x1="76.541" y1="198.958" x2="76.541" y2="201.227"/>
<line fill="none" stroke="#989898" stroke-linejoin="round" stroke-miterlimit="10" x1="62.616" y1="198.958" x2="62.616" y2="201.227"/>
<line fill="none" stroke="#989898" stroke-linejoin="round" stroke-miterlimit="10" x1="47.918" y1="198.958" x2="47.918" y2="201.227"/>
<polyline fill="none" stroke="#CC615A" stroke-width="2.75" stroke-miterlimit="10" points="55.653,86.013 69.578,75.182 
	83.503,83.691 98.202,93.748 112.127,106.126 126.052,120.051 140.75,130.881 154.675,138.617 169.373,147.9 183.298,146.354 
	197.223,144.806 211.921,144.032 225.846,140.938 239.771,164.146 254.469,180.392 268.394,187.354 283.093,187.354 
	297.018,187.354 310.942,183.486 325.641,168.015 339.565,171.108 353.49,175.75 368.188,181.939 382.113,186.581 396.038,189.675 
	410.596,189.675 "/>
<rect x="47.918" y="51.974" fill="none" width="369.781" height="146.984"/>
<text transform="matrix(1 0 0 1 34.8872 202.4443)" font-family="'Helvetica'" font-size="9.7">0</text>
<text transform="matrix(1 0 0 1 30.9663 186.1846)" font-family="'Helvetica'" font-size="9.7">50</text>
<text transform="matrix(1 0 0 1 27.0454 169.9268)" font-family="'Helvetica'" font-size="9.7">100</text>
<text transform="matrix(1 0 0 1 27.0454 153.667)" font-family="'Helvetica'" font-size="9.7">150</text>
<text transform="matrix(1 0 0 1 27.0454 137.4072)" font-family="'Helvetica'" font-size="9.7">200</text>
<text transform="matrix(1 0 0 1 27.0454 121.1484)" font-family="'Helvetica'" font-size="9.7">250</text>
<text transform="matrix(1 0 0 1 27.0454 104.8896)" font-family="'Helvetica'" font-size="9.7">300</text>
<text transform="matrix(1 0 0 1 27.0454 88.6299)" font-family="'Helvetica'" font-size="9.7">350</text>
<text transform="matrix(1 0 0 1 27.0454 72.3701)" font-family="'Helvetica'" font-size="9.7">400</text>
<text transform="matrix(1 0 0 1 27.0454 56.1123)" font-family="'Helvetica'" font-size="9.7">450</text>
<text transform="matrix(1 0 0 1 156.9458 38.4395)"><tspan x="0" y="0" font-family="'Helvetica'" font-size="19.92">La Tasa de Homicidios</tspan><tspan x="23.341" y="18" font-family="'Helvetica'" font-size="15">(por 100,000 personas)</tspan></text>
<g>
	<g>
		<line fill="none" stroke="#B39744" stroke-width="2" stroke-miterlimit="100" x1="99" y1="89" x2="99" y2="67"/>
		<g>
			<polygon fill="#B39744" points="105.598,84.366 104.499,83.343 99.464,88.761 94.428,83.343 93.33,84.366 99.464,90.963 			"/>
		</g>
	</g>
</g>
<text transform="matrix(0.7071 -0.7071 0.7071 0.7071 47.8525 225.3672)" font-family="'Helvetica'" font-size="9.7">1990</text>
<text transform="matrix(0.7071 -0.7071 0.7071 0.7071 119.2783 225.3672)" font-family="'Helvetica'" font-size="9.7">1995</text>
<text transform="matrix(0.7071 -0.7071 0.7071 0.7071 189.5518 225.3672)" font-family="'Helvetica'" font-size="9.7">2000</text>
<text transform="matrix(0.7071 -0.7071 0.7071 0.7071 261.5508 225.3672)" font-family="'Helvetica'" font-size="9.7">2005</text>
<text transform="matrix(0.7071 -0.7071 0.7071 0.7071 334.126 225.3672)" font-family="'Helvetica'" font-size="9.7">2010</text>
<text transform="matrix(0.7071 -0.7071 0.7071 0.7071 404.3984 225.3672)" font-family="'Helvetica'" font-size="9.7">2015</text>
<text transform="matrix(1 0 0 1 75.3311 39.2847)"><tspan x="0" y="0" font-family="'Helvetica'" font-size="9.9576">La cima del</tspan><tspan x="-1.942" y="11.949" font-family="'Helvetica'" font-size="9.9576">poder de los</tspan><tspan x="-9.962" y="23.898" font-family="'Helvetica'" font-size="9.9576">narcotraficantes</tspan></text>
</svg>
