<?xml version="1.0" encoding="utf-8"?>
<!-- Generator: Adobe Illustrator 16.0.0, SVG Export Plug-In . SVG Version: 6.00 Build 0)  -->
<!DOCTYPE svg PUBLIC "-//W3C//DTD SVG 1.1//EN" "http://www.w3.org/Graphics/SVG/1.1/DTD/svg11.dtd">
<svg version="1.1" id="Layer_1" xmlns="http://www.w3.org/2000/svg" xmlns:xlink="http://www.w3.org/1999/xlink" x="0px" y="0px"
	 width="450px" height="350px" viewBox="0 0 450 350" enable-background="new 0 0 450 350" xml:space="preserve">
<line fill="none" stroke="#989898" stroke-linejoin="round" stroke-miterlimit="10" x1="98.295" y1="296.4" x2="98.295" y2="57.976"/>
<line fill="none" stroke="#989898" stroke-linejoin="round" stroke-miterlimit="10" x1="95.632" y1="58.097" x2="98.295" y2="58.097"/>
<line fill="none" stroke="#989898" stroke-linejoin="round" stroke-miterlimit="10" x1="95.632" y1="87.199" x2="98.295" y2="87.199"/>
<line fill="none" stroke="#989898" stroke-linejoin="round" stroke-miterlimit="10" x1="95.632" y1="117.271" x2="98.295" y2="117.271"/>
<line fill="none" stroke="#989898" stroke-linejoin="round" stroke-miterlimit="10" x1="95.632" y1="147.345" x2="98.295" y2="147.345"/>
<line fill="none" stroke="#989898" stroke-linejoin="round" stroke-miterlimit="10" x1="95.632" y1="177.417" x2="98.295" y2="177.417"/>
<line fill="none" stroke="#989898" stroke-linejoin="round" stroke-miterlimit="10" x1="95.632" y1="206.52" x2="98.295" y2="206.52"/>
<line fill="none" stroke="#989898" stroke-linejoin="round" stroke-miterlimit="10" x1="95.632" y1="236.592" x2="98.295" y2="236.592"/>
<line fill="none" stroke="#989898" stroke-linejoin="round" stroke-miterlimit="10" x1="95.632" y1="266.664" x2="98.295" y2="266.664"/>
<line fill="none" stroke="#989898" stroke-linejoin="round" stroke-miterlimit="10" x1="95.632" y1="296.4" x2="98.295" y2="296.4"/>
<line fill="none" stroke="#989898" stroke-linejoin="round" stroke-miterlimit="10" x1="98.295" y1="296.4" x2="411.568" y2="296.4"/>
<line fill="none" stroke="#989898" stroke-linejoin="round" stroke-miterlimit="10" x1="388.414" y1="296.737" x2="388.414" y2="299.479"/>
<line fill="none" stroke="#989898" stroke-linejoin="round" stroke-miterlimit="10" x1="411.453" y1="296.737" x2="411.453" y2="299.479"/>
<line fill="none" stroke="#989898" stroke-linejoin="round" stroke-miterlimit="10" x1="363.797" y1="296.737" x2="363.797" y2="299.479"/>
<line fill="none" stroke="#989898" stroke-linejoin="round" stroke-miterlimit="10" x1="339.365" y1="296.737" x2="339.365" y2="299.479"/>
<line fill="none" stroke="#989898" stroke-linejoin="round" stroke-miterlimit="10" x1="315.9" y1="296.737" x2="315.9" y2="299.479"/>
<line fill="none" stroke="#989898" stroke-linejoin="round" stroke-miterlimit="10" x1="292.438" y1="296.737" x2="292.438" y2="299.479"/>
<line fill="none" stroke="#989898" stroke-linejoin="round" stroke-miterlimit="10" x1="269.154" y1="296.737" x2="269.154" y2="299.479"/>
<line fill="none" stroke="#989898" stroke-linejoin="round" stroke-miterlimit="10" x1="246.842" y1="296.737" x2="246.842" y2="299.479"/>
<line fill="none" stroke="#989898" stroke-linejoin="round" stroke-miterlimit="10" x1="223.561" y1="296.737" x2="223.561" y2="299.479"/>
<line fill="none" stroke="#989898" stroke-linejoin="round" stroke-miterlimit="10" x1="201.249" y1="296.737" x2="201.249" y2="299.479"/>
<line fill="none" stroke="#989898" stroke-linejoin="round" stroke-miterlimit="10" x1="175.665" y1="296.737" x2="175.665" y2="299.479"/>
<line fill="none" stroke="#989898" stroke-linejoin="round" stroke-miterlimit="10" x1="149.319" y1="296.737" x2="149.319" y2="299.479"/>
<line fill="none" stroke="#989898" stroke-linejoin="round" stroke-miterlimit="10" x1="120.854" y1="296.737" x2="120.854" y2="299.479"/>
<line fill="none" stroke="#989898" stroke-linejoin="round" stroke-miterlimit="10" x1="98.542" y1="296.737" x2="98.542" y2="299.479"/>
<polyline fill="none" stroke="#5B92C7" stroke-width="2.75" stroke-miterlimit="10" points="120.732,292.833 149.774,291.887 
	172.086,291.887 195.368,288.976 217.68,286.066 240.962,275.395 263.273,250.173 286.557,231.741 308.867,208.459 332.15,198.759 
	354.461,163.836 377.744,218.16 400.055,67.798 "/>
<text transform="matrix(1 0 0 1 56.0103 270.459)" fill="#000008" font-family="'Helvetica'" font-size="9.7008">500,000</text>
<text transform="matrix(1 0 0 1 48.7651 240.6396)" fill="#000008" font-family="'Helvetica'" font-size="9.7008">1,000,000</text>
<text transform="matrix(1 0 0 1 48.7651 210.8203)" fill="#000008" font-family="'Helvetica'" font-size="9.7008">1,500,000</text>
<text transform="matrix(1 0 0 1 48.7651 181)" font-family="'Helvetica'" font-size="9.7008">2,000,000</text>
<text transform="matrix(1 0 0 1 48.7651 151.1816)" fill="#000008" font-family="'Helvetica'" font-size="9.7008">2,500,000</text>
<text transform="matrix(1 0 0 1 48.7651 121.3613)" fill="#000008" font-family="'Helvetica'" font-size="9.7008">3,000,000</text>
<text transform="matrix(1 0 0 1 48.7651 91.542)" fill="#000008" font-family="'Helvetica'" font-size="9.7008">3,500,000</text>
<text transform="matrix(1 0 0 1 48.7651 61.7227)" fill="#000008" font-family="'Helvetica'" font-size="9.7008">4,000,000</text>
<text transform="matrix(0.7071 -0.7071 0.7071 0.7071 110.0801 323.1279)" font-family="'Helvetica'" font-size="9.7032">1900</text>
<text transform="matrix(0.7071 -0.7071 0.7071 0.7071 140.2773 321.8545)" font-family="'Helvetica'" font-size="9.7032">1910</text>
<text transform="matrix(0.7071 -0.7071 0.7071 0.7071 165.3501 321.8555)" font-family="'Helvetica'" font-size="9.7032">1920</text>
<text transform="matrix(0.7071 -0.7071 0.7071 0.7071 192.1504 321.8555)" font-family="'Helvetica'" font-size="9.7032">1930</text>
<text transform="matrix(0.7071 -0.7071 0.7071 0.7071 213.1919 321.8555)" font-family="'Helvetica'" font-size="9.7032">1940</text>
<text transform="matrix(0.7071 -0.7071 0.7071 0.7071 236.5381 321.8545)" font-family="'Helvetica'" font-size="9.7032">1950</text>
<text transform="matrix(0.7071 -0.7071 0.7071 0.7071 260.458 321.8545)" font-family="'Helvetica'" font-size="9.7032">1960</text>
<text transform="matrix(0.7071 -0.7071 0.7071 0.7071 283.2275 321.8545)" font-family="'Helvetica'" font-size="9.7032">1970</text>
<text transform="matrix(0.7071 -0.7071 0.7071 0.7071 307.1465 321.8545)" font-family="'Helvetica'" font-size="9.7032">1980</text>
<text transform="matrix(0.7071 -0.7071 0.7071 0.7071 329.918 321.8535)" font-family="'Helvetica'" font-size="9.7032">1990</text>
<text transform="matrix(0.7071 -0.7071 0.7071 0.7071 354.4141 321.8545)" font-family="'Helvetica'" font-size="9.7032">2000</text>
<text transform="matrix(0.7071 -0.7071 0.7071 0.7071 378.335 321.8555)" font-family="'Helvetica'" font-size="9.7032">2010</text>
<text transform="matrix(0.7071 -0.7071 0.7071 0.7071 401.6797 321.8545)" font-family="'Helvetica'" font-size="9.7032">2015</text>
<text transform="matrix(1 0 0 1 165.1577 52.4844)"><tspan x="0" y="0" font-family="'Helvetica'" font-size="19.9153">El Crecimiento de</tspan><tspan x="24.335" y="23.898" font-family="'Helvetica'" font-size="19.9153">la Población</tspan></text>
<text transform="matrix(1 0 0 1 210.6934 185.6826)"><tspan x="0" y="0" font-family="'Helvetica'" font-size="9.9576">Industrialización/</tspan><tspan x="-11.897" y="11.949" font-family="'Helvetica'" font-size="9.9576">Desplazamiento Rural</tspan></text>
<text transform="matrix(1 0 0 1 317.5742 113.0649)"><tspan x="0" y="0" font-family="'Helvetica'" font-size="9.9576">La cima del</tspan><tspan x="-1.943" y="11.949" font-family="'Helvetica'" font-size="9.9576">poder de los</tspan><tspan x="-9.963" y="23.899" font-family="'Helvetica'" font-size="9.9576">narcotraficantes</tspan></text>
<g>
	<g>
		<line fill="none" stroke="#B39744" stroke-width="2" stroke-miterlimit="100" x1="248" y1="253" x2="248" y2="203"/>
		<g>
			<polygon fill="#B39744" points="253.912,248.236 252.813,247.213 247.779,252.631 242.742,247.213 241.645,248.236 
				247.779,254.833 			"/>
		</g>
	</g>
</g>
<g>
	<g>
		<line fill="none" stroke="#B39744" stroke-width="2" stroke-miterlimit="100" x1="343" y1="167" x2="343" y2="142"/>
		<g>
			<polygon fill="#B39744" points="349.17,161.818 348.071,160.796 343.037,166.213 338,160.796 336.902,161.818 343.037,168.416 
							"/>
		</g>
	</g>
</g>
</svg>
